<svg width="200" height="200" viewBox="0 0 200 200" fill="none" xmlns="http://www.w3.org/2000/svg">
  <!-- Background -->
  <rect width="200" height="200" rx="20" fill="url(#grad1)"/>
  
  <!-- Wrench Icon -->
  <path d="M100 40L90 50L110 70L120 60L110 50L100 40Z" fill="white" opacity="0.9"/>
  <path d="M85 55L45 95C42 98 42 103 45 106L54 115C57 118 62 118 65 115L105 75L85 55Z" fill="white"/>
  
  <!-- Circle with play/tool symbol -->
  <circle cx="100" cy="100" r="45" stroke="white" stroke-width="4" fill="none" opacity="0.2"/>
  
  <!-- Car silhouette -->
  <path d="M60 120C60 120 65 115 70 115H130C135 115 140 120 140 120L145 130H55L60 120Z" fill="white" opacity="0.9"/>
  <circle cx="75" cy="135" r="8" fill="white"/>
  <circle cx="125" cy="135" r="8" fill="white"/>
  <rect x="80" y="105" width="40" height="15" rx="3" fill="white" opacity="0.8"/>
  
  <!-- Text -->
  <text x="100" y="165" font-family="Arial, sans-serif" font-size="18" font-weight="bold" fill="white" text-anchor="middle">AUTO SERVIS</text>
  <text x="100" y="180" font-family="Arial, sans-serif" font-size="12" fill="white" text-anchor="middle" opacity="0.9">PREMIUM</text>
  
  <defs>
    <linearGradient id="grad1" x1="0%" y1="0%" x2="100%" y2="100%">
      <stop offset="0%" style="stop-color:#10b981;stop-opacity:1" />
      <stop offset="100%" style="stop-color:#14b8a6;stop-opacity:1" />
    </linearGradient>
  </defs>
</svg>
